<?xml version="1.0" encoding="UTF-8" standalone="no"?>
<svg
   xmlns:dc="http://purl.org/dc/elements/1.1/"
   xmlns:cc="http://creativecommons.org/ns#"
   xmlns:rdf="http://www.w3.org/1999/02/22-rdf-syntax-ns#"
   xmlns:svg="http://www.w3.org/2000/svg"
   xmlns="http://www.w3.org/2000/svg"
   viewBox="0 0 1440 1440"
   height="1440"
   width="1440"
   xml:space="preserve"
   id="svg2"
   version="1.1"><metadata
     id="metadata8"><rdf:RDF><cc:Work
         rdf:about=""><dc:format>image/svg+xml</dc:format><dc:type
           rdf:resource="http://purl.org/dc/dcmitype/StillImage" /></cc:Work></rdf:RDF></metadata><defs
     id="defs6"><linearGradient
       id="linearGradient28"
       spreadMethod="pad"
       gradientTransform="matrix(0,408.3681,408.3681,0,485.35696,171.43213)"
       gradientUnits="userSpaceOnUse"
       y2="0"
       x2="1"
       y1="0"
       x1="0"><stop
         id="stop24"
         offset="0"
         style="stop-opacity:1;stop-color:#007aff" /><stop
         id="stop26"
         offset="1"
         style="stop-opacity:1;stop-color:#31b0ff" /></linearGradient><linearGradient
       id="linearGradient48"
       spreadMethod="pad"
       gradientTransform="matrix(0,408.3681,408.3681,0,644.27454,171.43213)"
       gradientUnits="userSpaceOnUse"
       y2="0"
       x2="1"
       y1="0"
       x1="0"><stop
         id="stop44"
         offset="0"
         style="stop-opacity:1;stop-color:#007aff" /><stop
         id="stop46"
         offset="1"
         style="stop-opacity:1;stop-color:#31b0ff" /></linearGradient><linearGradient
       id="linearGradient68"
       spreadMethod="pad"
       gradientTransform="matrix(0,408.3681,408.3681,0,720.44611,171.43213)"
       gradientUnits="userSpaceOnUse"
       y2="0"
       x2="1"
       y1="0"
       x1="0"><stop
         id="stop64"
         offset="0"
         style="stop-opacity:1;stop-color:#007aff" /><stop
         id="stop66"
         offset="1"
         style="stop-opacity:1;stop-color:#31b0ff" /></linearGradient><linearGradient
       id="linearGradient88"
       spreadMethod="pad"
       gradientTransform="matrix(0,408.3681,408.3681,0,801.6098,171.43213)"
       gradientUnits="userSpaceOnUse"
       y2="0"
       x2="1"
       y1="0"
       x1="0"><stop
         id="stop84"
         offset="0"
         style="stop-opacity:1;stop-color:#007aff" /><stop
         id="stop86"
         offset="1"
         style="stop-opacity:1;stop-color:#31b0ff" /></linearGradient><linearGradient
       id="linearGradient108"
       spreadMethod="pad"
       gradientTransform="matrix(0,408.3681,408.3681,0,914.23596,171.43213)"
       gradientUnits="userSpaceOnUse"
       y2="0"
       x2="1"
       y1="0"
       x1="0"><stop
         id="stop104"
         offset="0"
         style="stop-opacity:1;stop-color:#007aff" /><stop
         id="stop106"
         offset="1"
         style="stop-opacity:1;stop-color:#31b0ff" /></linearGradient><linearGradient
       id="linearGradient128"
       spreadMethod="pad"
       gradientTransform="matrix(0,408.3681,408.3681,0,1010.3134,171.43213)"
       gradientUnits="userSpaceOnUse"
       y2="0"
       x2="1"
       y1="0"
       x1="0"><stop
         id="stop124"
         offset="0"
         style="stop-opacity:1;stop-color:#007aff" /><stop
         id="stop126"
         offset="1"
         style="stop-opacity:1;stop-color:#31b0ff" /></linearGradient><clipPath
       id="clipPath138"
       clipPathUnits="userSpaceOnUse"><path
         id="path136"
         d="M 0,1080 H 1080 V 0 H 0 Z" /></clipPath><linearGradient
       id="linearGradient196"
       spreadMethod="pad"
       gradientTransform="matrix(0,408.3681,408.3681,0,576.16345,171.43213)"
       gradientUnits="userSpaceOnUse"
       y2="0"
       x2="1"
       y1="0"
       x1="0"><stop
         id="stop192"
         offset="0"
         style="stop-opacity:1;stop-color:#007aff" /><stop
         id="stop194"
         offset="1"
         style="stop-opacity:1;stop-color:#31b0ff" /></linearGradient><linearGradient
       id="linearGradient216"
       spreadMethod="pad"
       gradientTransform="matrix(0,408.3681,408.3681,0,706.96216,171.43213)"
       gradientUnits="userSpaceOnUse"
       y2="0"
       x2="1"
       y1="0"
       x1="0"><stop
         id="stop212"
         offset="0"
         style="stop-opacity:1;stop-color:#007aff" /><stop
         id="stop214"
         offset="1"
         style="stop-opacity:1;stop-color:#31b0ff" /></linearGradient><linearGradient
       id="linearGradient236"
       spreadMethod="pad"
       gradientTransform="matrix(0,408.3681,408.3681,0,796.96808,171.43213)"
       gradientUnits="userSpaceOnUse"
       y2="0"
       x2="1"
       y1="0"
       x1="0"><stop
         id="stop232"
         offset="0"
         style="stop-opacity:1;stop-color:#007aff" /><stop
         id="stop234"
         offset="1"
         style="stop-opacity:1;stop-color:#31b0ff" /></linearGradient><linearGradient
       id="linearGradient256"
       spreadMethod="pad"
       gradientTransform="matrix(0,408.3681,408.3681,0,902.38275,171.43213)"
       gradientUnits="userSpaceOnUse"
       y2="0"
       x2="1"
       y1="0"
       x1="0"><stop
         id="stop252"
         offset="0"
         style="stop-opacity:1;stop-color:#007aff" /><stop
         id="stop254"
         offset="1"
         style="stop-opacity:1;stop-color:#31b0ff" /></linearGradient><linearGradient
       id="linearGradient276"
       spreadMethod="pad"
       gradientTransform="matrix(0,408.3681,408.3681,0,985.28119,171.43213)"
       gradientUnits="userSpaceOnUse"
       y2="0"
       x2="1"
       y1="0"
       x1="0"><stop
         id="stop272"
         offset="0"
         style="stop-opacity:1;stop-color:#007aff" /><stop
         id="stop274"
         offset="1"
         style="stop-opacity:1;stop-color:#31b0ff" /></linearGradient><clipPath
       id="clipPath286"
       clipPathUnits="userSpaceOnUse"><path
         id="path284"
         d="M 0,1080 H 1080 V 0 H 0 Z" /></clipPath></defs><g
     transform="matrix(1.3333333,0,0,-1.3333333,0,1440)"
     id="g10"><g
       id="g12"><g
         id="g14"><g
           id="g20"><g
             id="g22"><path
               id="path30"
               style="fill:url(#linearGradient28);stroke:none"
               d="m 493.538,616.213 c -12.012,-1.684 -23.791,-4.556 -35.335,-8.607 v 0 c -11.554,-4.055 -21.765,-9.444 -30.635,-16.176 v 0 c 4.739,-1.529 9.179,-2.904 13.309,-4.13 v 0 c 3.517,-1.071 7.152,-2.03 10.899,-2.867 v 0 c 3.746,-0.842 6.843,-1.113 9.294,-0.805 v 0 c 1.525,0.154 3.747,0.997 6.652,2.527 v 0 c 2.905,1.524 6.31,3.362 10.211,5.505 v 0 c 3.902,2.142 8.298,4.322 13.196,6.539 v 0 c 4.892,2.218 10.169,4.094 15.829,5.623 v 0 c 5.66,1.525 11.625,2.484 17.897,2.867 v 0 c 6.273,0.379 12.77,-0.192 19.506,-1.721 v 0 c 6.572,-1.53 11.507,-4.056 14.8,-7.573 v 0 c 3.289,-3.518 5.16,-7.536 5.618,-12.045 v 0 c 0.463,-4.514 -0.304,-9.257 -2.292,-14.225 v 0 c -1.988,-4.973 -4.78,-9.753 -8.373,-14.342 v 0 c -3.597,-4.589 -7.919,-8.719 -12.967,-12.391 v 0 c -5.047,-3.668 -10.403,-6.348 -16.063,-8.027 v 0 c -8.564,-2.606 -14.875,-4.514 -18.926,-5.739 v 0 c -4.055,-1.226 -6.768,-2.105 -8.148,-2.639 v 0 c -1.376,-0.538 -1.951,-0.916 -1.721,-1.146 v 0 c 0.228,-0.229 0.345,-0.73 0.345,-1.492 v 0 c 0,-0.767 0.805,-1.226 2.41,-1.375 v 0 c 1.604,-0.154 3.784,-0.384 6.539,-0.688 v 0 c 2.755,-0.309 5.884,-0.847 9.407,-1.609 v 0 c 3.518,-0.767 7.189,-1.988 11.016,-3.672 v 0 c 3.667,-1.684 7.531,-4.285 11.586,-7.798 v 0 c 4.051,-3.522 7.532,-7.882 10.441,-13.078 v 0 c 2.9,-5.203 4.931,-11.246 6.081,-18.131 v 0 c 1.146,-6.881 0.8,-14.609 -1.033,-23.173 v 0 c -1.226,-5.506 -3.523,-10.979 -6.886,-16.405 v 0 c -3.364,-5.431 -7.568,-10.478 -12.621,-15.142 v 0 c -5.047,-4.668 -10.744,-8.836 -17.092,-12.508 v 0 c -6.348,-3.672 -13.079,-6.385 -20.193,-8.143 v 0 c -7.11,-1.76 -14.492,-2.527 -22.14,-2.297 v 0 c -7.653,0.228 -15.226,1.95 -22.714,5.164 v 0 c 3.666,6.422 7.072,13.424 10.206,20.993 v 0 c 3.134,7.573 6.081,15.451 8.836,23.636 v 0 c 2.756,8.182 5.351,16.363 7.803,24.549 v 0 c 2.441,8.181 4.738,16.021 6.88,23.519 v 0 c 3.672,12.696 7.802,24.436 12.391,35.224 v 0 c 4.59,10.782 8.949,20.225 13.079,28.337 v 0 c 4.894,9.481 9.79,18.046 14.684,25.694 v 0 c -0.917,1.071 -3.406,1.301 -7.457,0.692 v 0 c -4.055,-0.612 -8.452,-1.608 -13.191,-2.983 v 0 c -4.743,-1.376 -9.177,-2.91 -13.307,-4.589 v 0 c -4.131,-1.684 -6.737,-2.985 -7.803,-3.902 v 0 c -1.071,-0.917 -2.717,-4.477 -4.935,-10.669 v 0 c -2.218,-6.194 -4.668,-14.226 -7.34,-24.091 v 0 c -2.68,-9.869 -5.509,-21.306 -8.489,-34.306 v 0 c -2.985,-13.004 -5.852,-26.845 -8.607,-41.529 v 0 c -1.988,-10.557 -4.472,-20.231 -7.457,-29.025 v 0 c -2.984,-8.798 -6.006,-16.713 -9.065,-23.748 v 0 c -6.423,4.743 -11.549,10.286 -15.37,16.634 v 0 c -3.827,6.348 -6.503,12.962 -8.032,19.848 v 0 c -1.53,6.885 -1.877,13.766 -1.034,20.651 v 0 c 0.841,6.881 2.755,13.154 5.739,18.814 v 0 c 2.98,5.66 6.999,10.553 12.046,14.683 v 0 c 5.047,4.13 11.091,6.806 18.126,8.032 v 0 c -3.981,2.905 -8.491,5.122 -13.538,6.656 v 0 c -4.439,1.221 -9.752,1.722 -15.946,1.492 v 0 c -6.198,-0.229 -13.196,-2.259 -20.994,-6.081 v 0 c -5.355,-2.606 -9.603,-6.197 -12.736,-10.787 v 0 c -3.135,-4.589 -5.277,-9.747 -6.424,-15.488 v 0 c -1.15,-5.734 -1.416,-11.815 -0.803,-18.237 v 0 c 0.607,-6.428 2.067,-12.663 4.359,-18.702 v 0 c 2.296,-6.044 5.351,-11.741 9.177,-17.097 v 0 c 3.822,-5.356 8.336,-9.79 13.537,-13.308 v 0 c 4.894,-3.363 9.562,-6.422 13.996,-9.177 v 0 c 4.439,-2.751 8.794,-5.198 13.079,-7.34 v 0 c -2.446,-4.743 -4.781,-8.874 -6.997,-12.391 v 0 c -2.218,-3.518 -4.168,-6.502 -5.852,-8.949 v 0 c -1.988,-2.755 -3.897,-5.201 -5.735,-7.344 v 0 c 6.427,0.459 12.311,2.718 17.667,6.769 v 0 c 5.351,4.056 10.249,9.375 14.688,15.947 v 0 c 6.881,-2.597 14.028,-4.435 21.452,-5.506 v 0 c 7.419,-1.066 15.792,-1.53 25.124,-1.375 v 0 c 6.118,0 12.657,0.724 19.618,2.18 v 0 c 6.961,1.454 13.916,3.634 20.881,6.539 v 0 c 6.961,2.904 13.649,6.54 20.077,10.899 v 0 c 6.423,4.36 12.12,9.486 17.092,15.37 v 0 c 4.973,5.89 8.949,12.583 11.933,20.078 v 0 c 2.985,7.493 4.551,15.833 4.705,25.011 v 0 c 0,6.881 -0.729,12.961 -2.179,18.243 v 0 c -1.459,5.276 -3.368,9.898 -5.74,13.878 v 0 c -2.371,3.977 -5.126,7.382 -8.261,10.212 v 0 c -3.134,2.83 -6.305,5.164 -9.518,6.997 v 0 c -7.653,4.436 -16.372,7.191 -26.158,8.261 v 0 c 11.011,3.214 20.726,7.344 29.137,12.392 v 0 c 3.672,2.137 7.19,4.626 10.558,7.456 v 0 c 3.363,2.83 6.343,5.965 8.948,9.407 v 0 c 2.601,3.442 4.626,7.227 6.081,11.357 v 0 c 1.451,4.131 2.1,8.719 1.951,13.766 v 0 c -0.459,6.578 -3.56,12.279 -9.295,17.098 v 0 c -5.735,4.817 -13.233,8.602 -22.486,11.357 v 0 c -9.256,2.755 -19.735,4.472 -31.433,5.164 v 0 c -3.391,0.199 -6.794,0.299 -10.21,0.299 v 0 c -8.375,0 -16.827,-0.598 -25.355,-1.791" /></g></g></g></g><g
       id="g32"><g
         id="g34"><g
           id="g40"><g
             id="g42"><path
               id="path50"
               style="fill:url(#linearGradient48);stroke:none"
               d="m 629.485,543.934 c -2.291,-0.155 -4.668,-0.843 -7.114,-2.064 v 0 c -6.273,-3.213 -11.166,-7.306 -14.684,-12.274 v 0 c -3.522,-4.977 -5.547,-9.72 -6.08,-14.229 v 0 c -0.538,-4.514 0.533,-8.186 3.213,-11.012 v 0 c 2.675,-2.834 7.148,-3.559 13.425,-2.179 v 0 c 4.589,0.917 8.373,1.413 11.357,1.492 v 0 c 2.98,0.075 5.277,-0.23 6.882,-0.922 v 0 c 1.609,-0.687 2.558,-1.641 2.867,-2.867 v 0 c 0.304,-1.226 0.075,-2.601 -0.688,-4.13 v 0 c -1.375,-4.44 -2.83,-8.453 -4.359,-12.046 v 0 c -1.53,-3.596 -2.985,-7.114 -4.36,-10.552 v 0 c -1.375,-3.443 -2.75,-6.886 -4.131,-10.329 v 0 c -1.375,-3.438 -2.6,-7.152 -3.671,-11.128 v 0 c -0.917,-3.517 -1.605,-6.881 -2.064,-10.095 v 0 c -0.458,-3.213 -0.308,-6.08 0.459,-8.602 v 0 c 0.763,-2.525 2.372,-4.63 4.818,-6.31 v 0 c 2.446,-1.688 5.964,-2.675 10.558,-2.984 v 0 c 3.821,-0.304 7.11,-0.421 9.865,-0.347 v 0 c 2.75,0.08 5.16,0.347 7.227,0.805 v 0 c 2.063,0.459 3.976,1.147 5.735,2.063 v 0 c 1.758,0.921 3.635,2.217 5.623,3.901 v 0 c 2.755,2.297 5.047,4.626 6.885,6.998 v 0 c 1.834,2.371 3.555,4.898 5.16,7.573 v 0 c 1.609,2.676 3.176,5.469 4.706,8.378 v 0 c 1.524,2.9 3.287,6.039 5.275,9.407 v 0 c 0.46,0.762 0.688,1.492 0.688,2.18 v 0 c 0,0.688 -0.192,1.183 -0.571,1.492 v 0 c -0.383,0.303 -0.921,0.262 -1.609,-0.117 v 0 c -0.687,-0.383 -1.492,-1.263 -2.408,-2.639 v 0 c -1.53,-2.45 -3.252,-5.126 -5.164,-8.031 v 0 c -1.914,-2.905 -3.94,-5.735 -6.077,-8.49 v 0 c -2.147,-2.75 -4.326,-5.277 -6.54,-7.573 v 0 c -2.222,-2.292 -4.326,-4.126 -6.309,-5.506 v 0 c -1.993,-1.225 -4.248,-1.53 -6.769,-0.917 v 0 c -2.526,0.609 -3.869,2.218 -4.018,4.819 v 0 c -0.309,3.672 1.38,10.44 5.047,20.306 v 0 c 3.672,9.865 8.639,21.915 14.917,36.139 v 0 c 1.375,3.214 2.484,6.156 3.326,8.832 v 0 c 0.837,2.675 0.991,5.084 0.458,7.231 v 0 c -0.538,2.138 -1.95,3.934 -4.242,5.389 v 0 c -2.297,1.455 -5.894,2.484 -10.787,3.101 v 0 c -3.06,0.304 -5.852,0.417 -8.373,0.342 v 0 c -2.527,-0.08 -4.973,-0.155 -7.344,-0.229 v 0 c -2.372,-0.08 -4.669,-0.154 -6.881,-0.23 v 0 c -2.222,-0.079 -4.556,0.038 -7.003,0.346 v 0 c -5.356,0.763 -8.527,2.026 -9.519,3.785 v 0 c -0.996,1.759 -0.425,4.013 1.722,6.768 v 0 c 2.441,3.363 4.392,5.351 5.847,5.964 v 0 c 1.454,0.613 2.446,0.458 2.984,-0.458 v 0 c 0.533,-0.917 0.65,-2.26 0.346,-4.014 v 0 c -0.309,-1.758 -0.996,-3.251 -2.067,-4.476 v 0 c -0.613,-0.767 -1.071,-1.684 -1.376,-2.751 v 0 c -0.308,-1.071 0.075,-1.838 1.146,-2.297 v 0 c 0.459,-0.308 1.381,-0.111 2.756,0.576 v 0 c 1.375,0.688 2.367,1.412 2.984,2.18 v 0 c 1.68,2.138 3.017,3.901 4.013,5.276 v 0 c 0.992,1.376 1.872,2.984 2.639,4.819 v 0 c 0.916,1.988 1.066,3.746 0.458,5.275 v 0 c -0.613,1.53 -1.721,2.676 -3.326,3.444 v 0 c -1.34,0.637 -2.922,0.954 -4.746,0.954 v 0 c -0.359,0 -0.728,-0.013 -1.106,-0.037" /></g></g></g></g><g
       id="g52"><g
         id="g54"><g
           id="g60"><g
             id="g62"><path
               id="path70"
               style="fill:url(#linearGradient68);stroke:none"
               d="m 762.565,575.139 c -3.367,-0.309 -7.226,-0.955 -11.586,-1.952 v 0 c -4.36,-0.996 -8.682,-2.292 -12.962,-3.896 v 0 c -4.285,-1.609 -7.269,-3.33 -8.948,-5.164 v 0 c -3.214,-3.827 -5.777,-6.582 -7.69,-8.261 v 0 c -1.914,-1.684 -2.18,-2.68 -0.8,-2.984 v 0 c 0.762,-0.154 2.671,-0.23 5.734,-0.23 v 0 c 3.06,0 6.461,0.15 10.212,0.459 v 0 c 3.747,0.309 7.377,0.805 10.899,1.492 v 0 c 3.518,0.688 6.039,1.567 7.569,2.638 v 0 c 2.446,2.755 4.588,5.356 6.427,7.803 v 0 c 1.679,2.142 3.134,4.13 4.359,5.964 v 0 c 1.222,1.838 1.834,3.059 1.834,3.672 v 0 c 0,0.408 -0.748,0.613 -2.242,0.613 v 0 c -0.748,0 -1.683,-0.051 -2.806,-0.154 m -30.517,-39.466 c -4.13,-0.459 -8.569,-1.413 -13.307,-2.868 v 0 c -4.744,-1.455 -8.874,-3.938 -12.391,-7.456 v 0 c -2.447,-2.292 -4.973,-5.777 -7.569,-10.441 v 0 c -2.606,-4.668 -5.164,-9.827 -7.69,-15.487 v 0 c -2.522,-5.66 -4.855,-11.587 -6.998,-17.781 v 0 c -2.138,-6.197 -4.051,-12.012 -5.735,-17.438 v 0 c -1.68,-5.435 -2.985,-10.136 -3.901,-14.112 v 0 c -0.917,-3.981 -1.296,-6.656 -1.146,-8.032 v 0 c 0.155,-1.988 0.496,-4.093 1.034,-6.31 v 0 c 0.538,-2.217 1.529,-4.21 2.98,-5.964 v 0 c 1.454,-1.764 3.442,-3.214 5.968,-4.359 v 0 c 2.521,-1.147 5.847,-1.722 9.978,-1.722 v 0 c 2.755,0 5.926,0.954 9.524,2.867 v 0 c 3.592,1.914 7.376,4.435 11.357,7.574 v 0 c 3.976,3.134 7.952,6.768 11.933,10.899 v 0 c 3.975,4.13 7.802,8.447 11.47,12.962 v 0 c 3.672,4.509 7.001,9.064 9.981,13.654 v 0 c 2.985,4.589 5.469,8.868 7.457,12.849 v 0 c 0.154,0.304 0.228,0.608 0.228,0.917 v 0 c 0,0.762 -0.303,1.221 -0.916,1.375 v 0 c -0.767,0 -1.604,-0.309 -2.521,-0.917 v 0 c -0.459,-0.309 -0.922,-0.688 -1.38,-1.146 v 0 c -6.881,-9.332 -13.154,-17.363 -18.814,-24.095 v 0 c -2.446,-2.905 -4.898,-5.66 -7.344,-8.261 v 0 c -2.446,-2.6 -4.701,-4.743 -6.769,-6.422 v 0 c -2.063,-1.684 -3.863,-2.834 -5.388,-3.442 v 0 c -1.534,-0.613 -2.606,-0.309 -3.214,0.917 v 0 c -1.375,2.142 -1.604,5.622 -0.688,10.44 v 0 c 0.918,4.818 2.485,10.287 4.702,16.409 v 0 c 2.217,6.114 4.897,12.541 8.032,19.272 v 0 c 3.134,6.731 6.347,13.154 9.635,19.273 v 0 c 3.289,6.118 6.386,11.586 9.295,16.408 v 0 c 2.905,4.819 5.276,8.294 7.115,10.437 v 0 c -2.526,0.306 -5.032,0.459 -7.518,0.459 v 0 c -2.487,0 -4.953,-0.153 -7.4,-0.459" /></g></g></g></g><g
       id="g72"><g
         id="g74"><g
           id="g80"><g
             id="g82"><path
               id="path90"
               style="fill:url(#linearGradient88);stroke:none"
               d="m 821.304,535.673 c -8.112,-0.459 -16.863,-2.372 -26.27,-5.735 v 0 c -9.411,-3.368 -18.627,-8.645 -27.65,-15.834 v 0 c -5.815,-4.744 -10.979,-10.019 -15.488,-15.83 v 0 c -4.513,-5.814 -8.261,-11.815 -11.245,-18.013 v 0 c -2.985,-6.193 -5.122,-12.312 -6.423,-18.356 v 0 c -1.3,-6.043 -1.642,-11.549 -1.033,-16.521 v 0 c 0.613,-4.973 2.217,-9.215 4.818,-12.732 v 0 c 2.605,-3.523 6.347,-5.815 11.245,-6.886 v 0 c 4.13,-0.917 8.143,-1.301 12.045,-1.146 v 0 c 3.901,0.149 7.606,0.724 11.128,1.721 v 0 c 3.517,0.992 6.768,2.255 9.753,3.784 v 0 c 2.98,1.53 5.772,3.214 8.373,5.052 v 0 c 5.965,4.126 11.321,9.178 16.063,15.142 v 0 c -1.689,-3.981 -3.022,-7.115 -4.018,-9.407 v 0 c -0.996,-2.297 -1.95,-4.326 -2.867,-6.081 v 0 c -0.917,-1.759 -1.876,-3.597 -2.868,-5.506 v 0 c -0.996,-1.918 -2.333,-4.476 -4.013,-7.689 v 0 c -5.969,-0.305 -12.087,-0.763 -18.36,-1.376 v 0 c -6.273,-0.608 -12.429,-1.525 -18.468,-2.755 v 0 c -6.048,-1.221 -11.895,-2.788 -17.555,-4.701 v 0 c -5.655,-1.913 -10.932,-4.322 -15.83,-7.227 v 0 c -7.951,-4.589 -13.958,-8.836 -18.013,-12.738 v 0 c -4.051,-3.9 -6.656,-7.455 -7.802,-10.669 v 0 c -1.147,-3.209 -1.264,-6.039 -0.342,-8.49 v 0 c 0.917,-2.442 2.334,-4.589 4.243,-6.422 v 0 c 1.913,-1.835 4.056,-3.327 6.427,-4.473 v 0 c 2.372,-1.151 4.243,-1.95 5.618,-2.413 v 0 c 3.213,-1.067 7.194,-1.909 11.932,-2.521 v 0 c 4.744,-0.609 9.866,-0.688 15.376,-0.23 v 0 c 5.506,0.458 11.203,1.529 17.093,3.214 v 0 c 5.884,1.684 11.586,4.36 17.092,8.026 v 0 c 5.968,3.981 12.082,8.57 18.36,13.772 v 0 c 6.268,5.201 12.386,12.157 18.355,20.877 v 0 c 17.13,0.458 31.775,-0.955 43.937,-4.243 v 0 c 12.163,-3.289 22.145,-6.998 29.947,-11.129 v 0 c 9.177,-4.893 16.671,-10.477 22.485,-16.75 v 0 c -1.379,6.731 -4.438,13.004 -9.177,18.813 v 0 c -4.743,5.814 -10.824,10.899 -18.243,15.259 v 0 c -7.423,4.359 -16.026,7.957 -25.812,10.786 v 0 c -9.795,2.831 -20.272,4.702 -31.438,5.618 v 0 c 4.743,8.107 9.214,16.751 13.425,25.929 v 0 c 4.205,9.177 7.877,17.784 11.011,25.816 v 0 c 3.134,8.031 5.697,14.833 7.691,20.418 v 0 c 1.982,5.585 3.208,8.836 3.671,9.753 v 0 c 0.917,1.684 0.763,2.868 -0.463,3.555 v 0 c -1.226,0.692 -3.022,0.922 -5.389,0.692 v 0 c -2.376,-0.229 -5.163,-0.766 -8.377,-1.609 v 0 c -3.21,-0.841 -6.39,-1.875 -9.52,-3.097 v 0 c -3.138,-1.225 -5.931,-2.525 -8.378,-3.9 v 0 c -2.446,-1.375 -4.209,-2.751 -5.276,-4.131 v 0 c -2.754,-7.648 -5.393,-14.342 -7.914,-20.076 v 0 c -2.526,-5.735 -5.127,-10.783 -7.803,-15.142 v 0 c -2.68,-4.36 -5.505,-8.111 -8.49,-11.246 v 0 c -2.984,-3.138 -6.31,-5.931 -9.982,-8.372 v 0 c -6.118,-4.13 -11.128,-6.161 -15.03,-6.082 v 0 c -3.9,0.075 -6.464,1.722 -7.685,4.931 v 0 c -1.226,3.214 -1.034,7.722 0.575,13.542 v 0 c 1.605,5.809 4.777,12.461 9.52,19.959 v 0 c 6.273,9.786 12.999,17.817 20.193,24.095 v 0 c 7.19,6.269 14.417,11.358 21.682,15.259 v 0 c 7.264,3.897 14.229,6.881 20.881,8.948 v 0 c 6.656,2.063 12.583,3.785 17.785,5.16 v 0 c -2.148,3.059 -6.236,5.51 -12.28,7.344 v 0 c -4.832,1.466 -10.32,2.202 -16.47,2.202 v 0 c -1.542,0 -3.127,-0.046 -4.752,-0.139 M 727.689,362.439 c -3.059,0.155 -5.74,0.73 -8.032,1.722 v 0 c -2.297,0.996 -3.975,2.333 -5.047,4.013 v 0 c -1.071,1.684 -1.338,3.635 -0.805,5.852 v 0 c 0.539,2.222 2.105,4.476 4.706,6.768 v 0 c 3.822,3.368 8.645,6.274 14.454,8.72 v 0 c 5.814,2.45 11.816,4.438 18.014,5.964 v 0 c 6.194,1.534 12.045,2.68 17.551,3.443 v 0 c 5.505,0.766 9.865,1.225 13.079,1.379 v 0 c -4.439,-7.189 -8.949,-13.232 -13.537,-18.13 v 0 c -4.589,-4.894 -9.179,-8.832 -13.767,-11.816 v 0 c -4.589,-2.979 -9.14,-5.084 -13.654,-6.31 v 0 c -4.016,-1.088 -7.883,-1.63 -11.599,-1.63 v 0 c -0.457,0 -0.911,0.009 -1.363,0.025" /></g></g></g></g><g
       id="g92"><g
         id="g94"><g
           id="g100"><g
             id="g102"><path
               id="path110"
               style="fill:url(#linearGradient108);stroke:none"
               d="m 937.292,617.477 c -5.431,-1.918 -10.937,-5.511 -16.522,-10.788 v 0 c -5.585,-5.276 -11.208,-12.199 -16.863,-20.764 v 0 c -5.66,-8.57 -11.171,-18.509 -16.521,-29.829 v 0 c -3.672,-7.803 -7.344,-16.064 -11.012,-24.783 v 0 c -3.672,-8.719 -7.152,-17.359 -10.441,-25.923 v 0 c -3.293,-8.57 -6.31,-16.906 -9.065,-25.012 v 0 c -2.751,-8.111 -5.085,-15.455 -6.998,-22.028 v 0 c -1.908,-6.581 -3.326,-12.199 -4.243,-16.868 v 0 c -0.921,-4.663 -1.15,-7.839 -0.692,-9.518 v 0 c 0.767,-2.606 2.643,-4.477 5.623,-5.623 v 0 c 2.984,-1.146 6.235,-1.95 9.753,-2.409 v 0 c 3.976,-0.608 8.41,-0.763 13.308,-0.459 v 0 c -0.309,2.906 0,6.727 0.916,11.47 v 0 c 0.918,4.744 2.101,9.674 3.56,14.8 v 0 c 1.451,5.127 3.097,10.174 4.931,15.147 v 0 c 1.838,4.968 3.592,9.135 5.276,12.503 v 0 c 3.214,6.577 6.886,12.391 11.016,17.439 v 0 c 4.131,5.047 8.261,9.37 12.391,12.966 v 0 c 4.131,3.593 7.989,6.306 11.587,8.144 v 0 c 3.592,1.833 6.385,2.831 8.373,2.984 v 0 c 2.142,0.15 3.134,-1.151 2.985,-3.901 v 0 c -0.155,-2.755 -0.96,-6.278 -2.41,-10.557 v 0 c -1.454,-4.285 -3.325,-9.14 -5.622,-14.571 v 0 c -2.292,-5.431 -4.627,-10.745 -6.998,-15.946 v 0 c -2.372,-5.202 -4.514,-10.058 -6.423,-14.567 v 0 c -1.918,-4.514 -3.18,-8.074 -3.789,-10.669 v 0 c -0.916,-3.981 -1.492,-7.344 -1.721,-10.1 v 0 c -0.229,-2.75 0.346,-5.126 1.721,-7.11 v 0 c 1.375,-1.993 3.635,-3.597 6.769,-4.818 v 0 c 3.134,-1.23 7.611,-2.222 13.425,-2.984 v 0 c 3.822,-0.609 7.723,0.154 11.699,2.292 v 0 c 3.976,2.142 7.803,5.01 11.475,8.607 v 0 c 3.672,3.593 7.189,7.606 10.552,12.045 v 0 c 3.363,4.435 6.31,8.64 8.836,12.62 v 0 c 2.527,3.976 4.589,7.457 6.193,10.441 v 0 c 1.609,2.985 2.564,4.856 2.873,5.623 v 0 c 1.22,2.137 2.025,4.13 2.408,5.964 v 0 c 0.379,1.833 -0.117,3.059 -1.492,3.672 v 0 c -0.767,0.304 -1.417,0.228 -1.95,-0.23 v 0 c -0.538,-0.458 -1.034,-0.996 -1.492,-1.609 v 0 c -0.613,-0.613 -1.071,-1.454 -1.375,-2.521 v 0 c -0.767,-1.684 -2.377,-4.743 -4.818,-9.178 v 0 c -2.452,-4.439 -5.361,-9.103 -8.719,-13.995 v 0 c -3.369,-4.898 -6.965,-9.449 -10.788,-13.655 v 0 c -3.826,-4.209 -7.419,-6.923 -10.782,-8.143 v 0 c -2.297,-0.922 -3.442,-0.08 -3.442,2.521 v 0 c 0,2.601 0.608,6.081 1.833,10.441 v 0 c 1.226,4.359 2.867,9.294 4.936,14.799 v 0 c 2.062,5.507 4.168,10.82 6.309,15.947 v 0 c 2.138,5.122 4.051,9.636 5.735,13.537 v 0 c 1.684,3.901 2.755,6.54 3.214,7.915 v 0 c 1.525,4.743 2.559,9.065 3.096,12.966 v 0 c 0.534,3.902 0.192,7.227 -1.033,9.982 v 0 c -1.226,2.751 -3.635,4.739 -7.227,5.964 v 0 c -3.597,1.222 -8.832,1.53 -15.718,0.918 v 0 c -2.6,-0.309 -5.356,-1.071 -8.26,-2.293 v 0 c -2.905,-1.226 -5.852,-2.718 -8.832,-4.476 v 0 c -2.984,-1.759 -5.931,-3.709 -8.836,-5.852 v 0 c -2.905,-2.142 -5.735,-4.36 -8.489,-6.652 v 0 c -6.273,-5.201 -12.542,-11.17 -18.814,-17.897 v 0 c 0.458,1.525 0.837,2.521 1.146,2.98 v 0 c 0.304,0.463 0.687,1.38 1.151,2.755 v 0 c 15.141,13.309 27.719,26.654 37.744,40.041 v 0 c 10.014,13.383 17.625,25.583 22.827,36.599 v 0 c 5.202,11.011 8.031,20.263 8.489,27.762 v 0 c 0.459,7.493 -1.3,12.083 -5.275,13.766 v 0 c -2.498,1.014 -5.065,1.52 -7.7,1.52 v 0 c -2.533,0 -5.129,-0.468 -7.788,-1.402 M 924.9,581.566 c 8.336,15.599 15.18,22.789 20.536,21.568 v 0 c 3.213,-0.767 4.051,-4.972 2.525,-12.621 v 0 c -1.529,-7.651 -6.044,-17.362 -13.537,-29.141 v 0 c -2.605,-3.976 -5.622,-8.299 -9.066,-12.962 v 0 c -3.438,-4.669 -6.997,-9.295 -10.669,-13.883 v 0 c -3.668,-4.589 -7.306,-8.912 -10.899,-12.963 v 0 c -3.593,-4.055 -6.848,-7.46 -9.749,-10.211 v 0 c 12.237,31.205 22.519,54.608 30.859,70.213" /></g></g></g></g><g
       id="g112"><g
         id="g114"><g
           id="g120"><g
             id="g122"><path
               id="path130"
               style="fill:url(#linearGradient128);stroke:none"
               d="m 1008.079,579.961 c 0.304,-1.993 0.112,-4.439 -0.576,-7.344 v 0 c -0.687,-2.91 -1.571,-5.852 -2.638,-8.836 v 0 c -1.071,-2.98 -2.259,-5.814 -3.555,-8.49 v 0 c -1.305,-2.676 -2.414,-4.702 -3.331,-6.077 v 0 c -8.568,-0.154 -15.599,0.304 -21.11,1.375 v 0 c -5.505,1.067 -9.865,2.18 -13.079,3.327 v 0 c -3.208,1.145 -5.537,2.025 -6.997,2.638 v 0 c -1.45,0.608 -2.484,0.379 -3.097,-0.688 v 0 c 2.451,-3.214 5.473,-5.964 9.065,-8.26 v 0 c 3.598,-2.292 7.227,-4.244 10.9,-5.853 v 0 c 3.672,-1.604 7.147,-2.904 10.44,-3.9 v 0 c 3.284,-0.997 6.002,-1.642 8.144,-1.952 v 0 c -0.154,-0.149 -0.767,-1.454 -1.834,-3.896 v 0 c -1.075,-2.45 -2.488,-5.547 -4.247,-9.294 v 0 c -1.759,-3.752 -3.635,-7.882 -5.623,-12.391 v 0 c -1.988,-4.515 -3.901,-8.799 -5.735,-12.85 v 0 c -1.833,-4.056 -3.48,-7.686 -4.934,-10.899 v 0 c -1.45,-3.213 -2.41,-5.431 -2.868,-6.651 v 0 c -3.059,-7.499 -5.351,-13.734 -6.88,-18.702 v 0 c -1.53,-4.973 -2.447,-9.22 -2.756,-12.733 v 0 c -0.303,-3.522 0,-6.539 0.917,-9.065 v 0 c 0.917,-2.526 2.297,-5.014 4.13,-7.456 v 0 c 1.072,-1.684 2.984,-3.064 5.735,-4.131 v 0 c 2.756,-1.071 5.815,-1.801 9.183,-2.18 v 0 c 3.363,-0.383 6.88,-0.425 10.552,-0.117 v 0 c 3.672,0.304 7.035,0.922 10.094,1.839 v 0 c 3.977,1.375 8.108,3.442 12.392,6.193 v 0 c 4.28,2.756 8.682,6.385 13.195,10.899 v 0 c 4.51,4.51 9.179,10.019 13.996,16.522 v 0 c 4.818,6.497 9.903,14.187 15.259,23.061 v 0 c 2.596,3.517 4.621,6.801 6.081,9.865 v 0 c 1.45,3.06 2.329,4.893 2.638,5.506 v 0 c 0.917,1.988 0.608,3.288 -0.917,3.9 v 0 c -1.534,0.609 -2.755,0.23 -3.672,-1.145 v 0 c -5.201,-7.802 -10.211,-15.642 -15.029,-23.52 v 0 c -4.818,-7.881 -9.79,-15.067 -14.917,-21.569 v 0 c -5.127,-6.501 -10.553,-11.97 -16.288,-16.404 v 0 c -5.739,-4.44 -12.05,-7.115 -18.931,-8.031 v 0 c -2.605,-0.309 -4.513,-0.309 -5.734,0 v 0 c -1.231,0.303 -2.068,0.837 -2.527,1.603 v 0 c -0.458,0.768 -0.687,1.684 -0.687,2.756 v 0 3.443 c 0,0.762 0.57,2.867 1.722,6.31 v 0 c 1.145,3.438 2.713,7.686 4.7,12.733 v 0 c 1.988,5.047 4.281,10.669 6.886,16.862 v 0 c 2.601,6.198 5.351,12.621 8.261,19.277 v 0 c 2.905,6.652 5.852,13.229 8.831,19.731 v 0 c 2.984,6.502 5.852,12.583 8.608,18.243 v 0 c 9.939,0.149 17.928,0.65 23.977,1.492 v 0 c 6.039,0.837 10.67,2.18 13.879,4.013 v 0 c 3.213,1.839 5.281,4.281 6.198,7.344 v 0 c 0.917,3.059 1.221,7.036 0.917,11.933 v 0 c -0.459,1.376 -1.264,1.951 -2.41,1.717 v 0 c -1.145,-0.229 -3.096,-0.88 -5.851,-1.946 v 0 c -2.755,-1.076 -6.54,-2.414 -11.357,-4.019 v 0 c -4.819,-1.603 -11.208,-2.946 -19.161,-4.013 v 0 c 1.222,2.905 2.18,5.277 2.868,7.11 v 0 c 0.688,1.839 1.151,3.444 1.38,4.819 v 0 c 0.229,1.38 0.261,2.676 0.112,3.901 v 0 c -0.154,1.225 -0.383,2.526 -0.688,3.901 v 0 c -0.458,2.142 -1.529,3.976 -3.213,5.505 v 0 c -1.684,1.53 -3.635,2.718 -5.852,3.56 v 0 c -2.217,0.838 -4.626,1.376 -7.227,1.604 v 0 c -0.71,0.063 -1.408,0.094 -2.094,0.094 v 0 c -1.83,0 -3.579,-0.222 -5.245,-0.664" /></g></g></g></g><g
       id="g132"><g
         clip-path="url(#clipPath138)"
         id="g134"><g
           transform="translate(403.6267,310.6572)"
           id="g140"><path
             id="path142"
             style="fill:#ffac00;fill-opacity:1;fill-rule:nonzero;stroke:none"
             d="m 0,0 c -2.475,0 -4.986,0.552 -7.358,1.712 -35.773,17.509 -65.927,44.677 -87.201,78.557 -62.901,100.187 -32.569,232.865 67.613,295.77 48.534,30.475 106.018,40.219 161.888,27.449 55.863,-12.77 103.41,-46.529 133.88,-95.06 4.923,-7.845 2.556,-18.192 -5.283,-23.113 -7.847,-4.93 -18.19,-2.558 -23.115,5.282 C 187.353,375.122 75.409,400.705 -9.114,347.646 -93.64,294.573 -119.232,182.626 -66.161,98.1 -48.211,69.506 -22.778,46.59 7.381,31.827 15.698,27.757 19.141,17.714 15.069,9.397 12.16,3.457 6.198,0 0,0" /></g><g
           transform="translate(29.8343,528.2835)"
           id="g144"><path
             id="path146"
             style="fill:#ffac00;fill-opacity:1;fill-rule:nonzero;stroke:none"
             d="m 0,0 c -9.259,0 -16.765,-7.508 -16.765,-16.765 0,-9.257 7.506,-16.765 16.765,-16.765 h 211.359 c -0.181,11.143 0.407,22.338 1.708,33.53 z" /></g><g
           transform="translate(672.706,682.8193)"
           id="g148"><path
             id="path150"
             style="fill:#ffac00;fill-opacity:1;fill-rule:nonzero;stroke:none"
             d="m 0,0 133.531,133.53 c 6.546,6.544 6.546,17.163 0,23.707 -6.549,6.548 -17.163,6.548 -23.711,0 L -25.73,21.688 C -16.705,15.039 -8.092,7.826 0,0" /></g><g
           transform="translate(149.155,206.6879)"
           id="g152"><path
             id="path154"
             style="fill:#ffac00;fill-opacity:1;fill-rule:nonzero;stroke:none"
             d="m 0,0 c -6.546,-6.544 -6.546,-17.162 0,-23.707 3.274,-3.274 7.566,-4.911 11.856,-4.911 4.289,0 8.581,1.637 11.855,4.911 l 139.645,139.645 c -7.762,8.068 -14.994,16.673 -21.669,25.749 z" /></g><g
           transform="translate(494.4595,754.0722)"
           id="g156"><path
             id="path158"
             style="fill:#ffac00;fill-opacity:1;fill-rule:nonzero;stroke:none"
             d="m 0,0 v 205.307 c 0,9.257 -7.505,16.765 -16.765,16.765 -9.259,0 -16.765,-7.508 -16.765,-16.765 V -2.373 C -22.441,-0.84 -11.249,-0.044 0,0" /></g><g
           transform="translate(324.8744,688.0484)"
           id="g160"><path
             id="path162"
             style="fill:#ffac00;fill-opacity:1;fill-rule:nonzero;stroke:none"
             d="m 0,0 -152.008,152.008 c -6.549,6.548 -17.163,6.548 -23.711,0 -6.547,-6.544 -6.547,-17.163 0,-23.707 L -23.364,-24.053 C -16.149,-15.552 -8.341,-7.529 0,0" /></g><g
           transform="translate(128.2785,384.9311)"
           id="g164"><path
             id="path166"
             style="fill:#ffac00;fill-opacity:1;fill-rule:nonzero;stroke:none"
             d="m 0,0 c -8.553,-3.541 -12.616,-13.35 -9.072,-21.906 2.673,-6.455 8.915,-10.351 15.494,-10.351 2.138,0 4.311,0.411 6.409,1.281 l 118.967,49.278 c -4.273,10.42 -7.854,21.054 -10.685,31.864 z" /></g><g
           transform="translate(635.2603,848.1016)"
           id="g168"><path
             id="path170"
             style="fill:#ffac00;fill-opacity:1;fill-rule:nonzero;stroke:none"
             d="m 0,0 c 3.543,8.555 -0.517,18.365 -9.072,21.906 -8.556,3.545 -18.36,-0.52 -21.904,-9.07 l -47.373,-114.37 c 10.992,-2.706 21.729,-6.041 32.112,-10.092 z" /></g><g
           transform="translate(351.1071,860.9372)"
           id="g172"><path
             id="path174"
             style="fill:#ffac00;fill-opacity:1;fill-rule:nonzero;stroke:none"
             d="m 0,0 c -3.543,8.551 -13.348,12.616 -21.903,9.07 -8.556,-3.541 -12.616,-13.35 -9.073,-21.906 l 52.216,-126.06 c 9.86,5.488 20.002,10.253 30.35,14.348 z" /></g><g
           transform="translate(141.1094,669.0818)"
           id="g176"><path
             id="path178"
             style="fill:#ffac00;fill-opacity:1;fill-rule:nonzero;stroke:none"
             d="m 0,0 c -8.548,3.546 -18.362,-0.519 -21.903,-9.07 -3.544,-8.555 0.519,-18.365 9.072,-21.906 l 127.873,-52.966 c 3.769,10.6 8.163,20.899 13.24,30.806 z" /></g></g></g><g
       id="g180"><g
         id="g182"><g
           id="g188"><g
             id="g190"><path
               id="path198"
               style="fill:url(#linearGradient196);stroke:none"
               d="m 598.948,387.877 c -9.332,-2.91 -16.826,-6.31 -22.485,-10.212 v 0 c -5.661,-3.901 -9.866,-8.144 -12.621,-12.733 v 0 c -2.751,-4.588 -4.285,-9.373 -4.589,-14.342 v 0 c -0.309,-4.972 0.229,-9.907 1.609,-14.8 v 0 c 1.375,-5.047 4.702,-10.936 9.977,-17.667 v 0 c 5.282,-6.731 11.129,-14.267 17.556,-22.603 v 0 c 6.422,-8.335 12.808,-17.63 19.16,-27.879 v 0 c 6.343,-10.248 11.357,-21.489 15.029,-33.726 v 0 c 2.442,-7.957 2.33,-15.567 -0.346,-22.832 v 0 c -2.675,-7.269 -6.694,-13.766 -12.045,-19.501 v 0 c -5.356,-5.739 -11.474,-10.478 -18.355,-14.23 v 0 c -6.886,-3.747 -13.308,-6.08 -19.277,-6.997 v 0 c -2.75,-0.458 -6.731,-0.646 -11.928,-0.571 v 0 c -5.206,0.075 -10.638,1.029 -16.292,2.867 v 0 c -5.66,1.834 -11.054,4.856 -16.176,9.061 v 0 c -5.126,4.205 -8.836,10.211 -11.129,18.014 v 0 c -2.296,7.802 -2.68,14.833 -1.15,21.111 v 0 c 1.529,6.267 4.247,11.815 8.149,16.633 v 0 c 3.9,4.818 8.522,8.869 13.879,12.162 v 0 c 5.356,3.289 10.631,5.852 15.833,7.685 v 0 c 5.197,1.685 9.674,4.014 13.425,6.999 v 0 c 3.742,2.984 6.769,5.926 9.061,8.836 v 0 c 2.755,3.363 4.968,6.88 6.656,10.552 v 0 c -12.391,3.059 -23.865,3.864 -34.418,2.41 v 0 c -10.557,-1.456 -19.927,-4.702 -28.108,-9.754 v 0 c -8.187,-5.047 -14.954,-11.699 -20.306,-19.959 v 0 c -5.356,-8.261 -9.028,-17.668 -11.016,-28.226 v 0 c -1.834,-10.552 -0.651,-20.038 3.56,-28.449 v 0 c 4.205,-8.415 10.281,-15.45 18.238,-21.11 v 0 c 7.952,-5.656 17.096,-9.828 27.42,-12.504 v 0 c 10.324,-2.676 20.61,-3.559 30.86,-2.638 v 0 c 10.557,0.916 20.843,3.096 30.862,6.54 v 0 c 10.016,3.438 19.081,7.839 27.192,13.19 v 0 c 8.106,5.351 14.875,11.587 20.306,18.702 v 0 c 5.426,7.114 8.832,14.8 10.211,23.061 v 0 c 1.375,7.952 1.338,15.75 -0.117,23.402 v 0 c -1.454,7.649 -3.784,15.029 -6.997,22.144 v 0 c -3.214,7.11 -6.999,13.879 -11.358,20.306 v 0 c -4.36,6.422 -8.836,12.424 -13.425,18.009 v 0 c -4.589,5.585 -8.986,10.707 -13.191,15.375 v 0 c -4.21,4.664 -7.685,8.753 -10.441,12.275 v 0 c -4.13,5.197 -7.114,9.865 -8.948,13.995 v 0 c -1.834,4.131 -2.867,7.84 -3.097,11.129 v 0 c -0.229,3.289 0.188,6.231 1.263,8.836 v 0 c 1.067,2.601 2.442,4.968 4.126,7.11 v 0 c 1.071,1.38 2.872,2.755 5.393,4.13 v 0 c 2.527,1.381 5.356,2.105 8.49,2.18 v 0 c 3.134,0.075 6.427,-0.799 9.866,-2.638 v 0 c 3.442,-1.833 6.693,-5.277 9.752,-10.324 v 0 c 2.756,-4.743 3.977,-9.294 3.672,-13.654 v 0 c -0.308,-4.359 -1.145,-8.298 -2.525,-11.816 v 0 c -1.684,-3.98 -4.051,-7.881 -7.11,-11.703 v 0 c 12.082,-1.226 21.873,0.613 29.366,5.51 v 0 c 7.493,4.893 11.395,12.392 11.704,22.486 v 0 c 0.149,5.197 -1.605,9.94 -5.277,14.224 v 0 c -3.672,4.281 -8.569,7.723 -14.683,10.324 v 0 c -6.123,2.601 -13.121,4.13 -20.998,4.59 v 0 c -1.25,0.073 -2.504,0.11 -3.763,0.11 v 0 c -6.679,0 -13.494,-1.032 -20.444,-3.09" /></g></g></g></g><g
       id="g200"><g
         id="g202"><g
           id="g208"><g
             id="g210"><path
               id="path218"
               style="fill:url(#linearGradient216);stroke:none"
               d="m 704.724,338.316 c 0.305,-1.992 0.117,-4.438 -0.575,-7.344 v 0 c -0.687,-2.909 -1.567,-5.852 -2.639,-8.836 v 0 c -1.071,-2.98 -2.259,-5.814 -3.555,-8.49 v 0 c -1.3,-2.675 -2.408,-4.701 -3.325,-6.076 v 0 c -8.57,-0.154 -15.605,0.304 -21.111,1.375 v 0 c -5.505,1.066 -9.864,2.18 -13.078,3.326 v 0 c -3.214,1.146 -5.543,2.025 -6.998,2.638 v 0 c -1.455,0.608 -2.484,0.379 -3.097,-0.688 v 0 c 2.446,-3.213 5.469,-5.964 9.061,-8.261 v 0 c 3.597,-2.291 7.227,-4.242 10.899,-5.851 v 0 c 3.672,-1.604 7.152,-2.905 10.44,-3.901 v 0 c 3.289,-0.996 6.002,-1.642 8.145,-1.95 v 0 c -0.151,-0.151 -0.768,-1.456 -1.835,-3.897 v 0 c -1.071,-2.451 -2.488,-5.548 -4.242,-9.295 v 0 c -1.763,-3.752 -3.639,-7.882 -5.623,-12.391 v 0 c -1.992,-4.514 -3.901,-8.799 -5.734,-12.85 v 0 c -1.839,-4.055 -3.485,-7.685 -4.935,-10.899 v 0 c -1.455,-3.213 -2.409,-5.431 -2.867,-6.651 v 0 c -3.06,-7.499 -5.356,-13.734 -6.886,-18.702 v 0 c -1.525,-4.973 -2.446,-9.22 -2.751,-12.732 v 0 c -0.308,-3.523 0,-6.54 0.917,-9.066 v 0 c 0.917,-2.525 2.292,-5.014 4.13,-7.456 v 0 c 1.071,-1.684 2.98,-3.064 5.735,-4.131 v 0 c 2.755,-1.071 5.81,-1.801 9.178,-2.179 v 0 c 3.363,-0.384 6.885,-0.426 10.553,-0.117 v 0 c 3.672,0.304 7.035,0.921 10.099,1.838 v 0 c 3.976,1.375 8.106,3.443 12.391,6.193 v 0 c 4.281,2.756 8.677,6.386 13.191,10.899 v 0 c 4.509,4.51 9.178,10.02 13.995,16.522 v 0 c 4.819,6.497 9.903,14.187 15.259,23.061 v 0 c 2.601,3.517 4.627,6.801 6.081,9.865 v 0 c 1.456,3.06 2.329,4.893 2.639,5.506 v 0 c 0.916,1.988 0.612,3.289 -0.917,3.901 v 0 c -1.53,0.608 -2.755,0.229 -3.672,-1.146 v 0 c -5.202,-7.802 -10.211,-15.642 -15.03,-23.52 v 0 c -4.818,-7.881 -9.79,-15.066 -14.912,-21.568 v 0 c -5.126,-6.502 -10.558,-11.97 -16.293,-16.404 v 0 c -5.735,-4.44 -12.044,-7.116 -18.93,-8.032 v 0 c -2.601,-0.309 -4.514,-0.309 -5.735,0 v 0 c -1.225,0.304 -2.063,0.837 -2.526,1.604 v 0 c -0.459,0.767 -0.687,1.684 -0.687,2.756 v 0 3.442 c 0,0.762 0.575,2.867 1.721,6.31 v 0 c 1.146,3.438 2.713,7.686 4.706,12.733 v 0 c 1.983,5.047 4.28,10.67 6.88,16.863 v 0 c 2.601,6.198 5.356,12.62 8.261,19.277 v 0 c 2.905,6.652 5.852,13.228 8.836,19.73 v 0 c 2.98,6.502 5.852,12.583 8.603,18.243 v 0 c 9.945,0.15 17.934,0.65 23.978,1.493 v 0 c 6.043,0.837 10.669,2.179 13.883,4.013 v 0 c 3.214,1.838 5.277,4.28 6.193,7.344 v 0 c 0.917,3.059 1.226,7.035 0.917,11.933 v 0 c -0.458,1.375 -1.258,1.95 -2.409,1.716 v 0 c -1.146,-0.228 -3.096,-0.879 -5.847,-1.946 v 0 c -2.756,-1.075 -6.539,-2.414 -11.358,-4.018 v 0 c -4.822,-1.604 -11.207,-2.947 -19.159,-4.013 v 0 c 1.22,2.905 2.18,5.276 2.867,7.11 v 0 c 0.688,1.838 1.146,3.442 1.376,4.818 v 0 c 0.228,1.38 0.266,2.675 0.117,3.901 v 0 c -0.155,1.226 -0.384,2.526 -0.693,3.901 v 0 c -0.459,2.142 -1.53,3.977 -3.209,5.506 v 0 c -1.684,1.53 -3.634,2.718 -5.852,3.559 v 0 c -2.222,0.838 -4.63,1.376 -7.227,1.605 v 0 c -0.711,0.063 -1.409,0.094 -2.096,0.094 v 0 c -1.831,0 -3.578,-0.222 -5.248,-0.665" /></g></g></g></g><g
       id="g220"><g
         id="g222"><g
           id="g228"><g
             id="g230"><path
               id="path238"
               style="fill:url(#linearGradient236);stroke:none"
               d="m 799.256,294.028 c -13.921,-3.059 -25.891,-8.911 -35.911,-17.551 v 0 c -10.02,-8.644 -18.392,-18.626 -25.124,-29.942 v 0 c -1.221,-2.146 -2.83,-5.243 -4.818,-9.294 v 0 c -1.987,-4.055 -3.747,-8.49 -5.276,-13.308 v 0 c -1.53,-4.818 -2.601,-9.753 -3.214,-14.8 v 0 c -0.607,-5.047 -0.149,-9.636 1.375,-13.766 v 0 c 1.38,-3.672 3.672,-6.428 6.886,-8.262 v 0 c 3.213,-1.833 6.652,-3.022 10.324,-3.555 v 0 c 3.672,-0.538 7.147,-0.538 10.44,0 v 0 c 3.289,0.533 5.698,1.263 7.227,2.18 v 0 c 3.976,2.442 7.686,5.469 11.129,9.061 v 0 c 3.442,3.592 7.61,8.527 12.508,14.8 v 0 c 0.608,0.608 1.796,2.255 3.555,4.935 v 0 c 1.754,2.675 3.704,5.698 5.852,9.061 v 0 c 2.137,3.363 4.28,6.768 6.422,10.211 v 0 c 2.142,3.443 3.976,6.31 5.505,8.607 v 0 c -0.154,-0.458 -0.613,-1.95 -1.375,-4.477 v 0 c -0.767,-2.52 -1.646,-5.43 -2.638,-8.719 v 0 c -0.996,-3.288 -1.95,-6.652 -2.867,-10.094 v 0 c -0.917,-3.443 -1.605,-6.31 -2.068,-8.607 v 0 c -1.071,-5.356 -0.687,-10.286 1.151,-14.796 v 0 c 1.834,-4.513 5.197,-7.689 10.094,-9.524 v 0 c 6.731,-2.45 13.191,-2.45 19.39,0 v 0 c 6.193,2.447 11.736,7.11 16.633,13.996 v 0 c 1.225,1.68 2.943,4.206 5.165,7.574 v 0 c 2.216,3.363 4.509,6.955 6.88,10.782 v 0 c 2.372,3.821 4.668,7.572 6.886,11.244 v 0 c 2.217,3.672 3.939,6.573 5.164,8.72 v 0 c 0.608,1.066 0.837,2.1 0.688,3.096 v 0 c -0.155,0.992 -0.501,1.722 -1.034,2.18 v 0 c -0.538,0.458 -1.188,0.65 -1.95,0.575 v 0 c -0.768,-0.079 -1.376,-0.5 -1.835,-1.262 v 0 c -1.071,-1.53 -2.717,-4.13 -4.934,-7.802 v 0 c -2.218,-3.672 -4.701,-7.728 -7.457,-12.163 v 0 c -2.755,-4.439 -5.66,-8.873 -8.719,-13.307 v 0 c -3.064,-4.44 -5.964,-8.187 -8.719,-11.241 v 0 c -2.297,-2.606 -4.514,-4.327 -6.657,-5.165 v 0 c -2.142,-0.841 -3.975,-0.996 -5.505,-0.458 v 0 c -1.53,0.533 -2.638,1.567 -3.325,3.097 v 0 c -0.688,1.529 -0.656,3.443 0.111,5.735 v 0 c 1.226,4.13 2.905,8.719 5.053,13.771 v 0 c 2.137,5.047 4.317,10.169 6.539,15.371 v 0 c 2.212,5.197 4.392,10.286 6.539,15.259 v 0 c 2.138,4.967 3.897,9.443 5.276,13.424 v 0 c 1.375,3.976 2.18,7.26 2.41,9.866 v 0 c 0.229,2.595 -0.347,4.051 -1.722,4.359 v 0 c -2.451,0.763 -5.702,0.917 -9.753,0.458 v 0 c -4.056,-0.458 -8.223,-1.529 -12.503,-3.213 v 0 c -2.452,-0.917 -5.703,-3.784 -9.754,-8.603 v 0 c -4.055,-4.817 -8.91,-12.278 -14.571,-22.373 v 0 c -1.833,-3.368 -4.242,-7.306 -7.226,-11.816 v 0 c -2.985,-4.513 -6.044,-8.911 -9.178,-13.196 v 0 c -3.139,-4.279 -6.235,-8.068 -9.294,-11.357 v 0 c -3.059,-3.288 -5.66,-5.313 -7.799,-6.081 v 0 c -1.224,-0.458 -2.376,-0.612 -3.442,-0.458 v 0 c -1.071,0.155 -1.914,0.805 -2.526,1.95 v 0 c -0.612,1.151 -0.88,2.948 -0.8,5.394 v 0 c 0.075,2.446 0.8,5.735 2.18,9.865 v 0 c 0.608,2.143 2.025,5.585 4.243,10.328 v 0 c 2.217,4.739 5.196,9.941 8.949,15.601 v 0 c 3.746,5.66 8.377,11.357 13.883,17.096 v 0 c 5.505,5.735 11.932,10.745 19.272,15.026 v 0 c 2.905,1.684 6.23,3.176 9.981,4.475 v 0 c 3.747,1.296 7.378,2.447 10.899,3.444 v 0 c 3.519,0.992 6.652,1.796 9.407,2.408 v 0 c 2.756,0.609 4.51,1.067 5.277,1.375 v 0 c 1.684,0.764 2.563,1.643 2.638,2.639 v 0 c 0.075,0.996 -0.341,1.988 -1.258,2.985 v 0 c -0.922,0.991 -2.105,1.871 -3.56,2.637 v 0 c -1.454,0.763 -2.946,1.376 -4.472,1.835 v 0 c -5.129,1.263 -10.491,1.895 -16.088,1.895 v 0 c -5.924,0 -12.111,-0.708 -18.559,-2.125" /></g></g></g></g><g
       id="g240"><g
         id="g242"><g
           id="g248"><g
             id="g250"><path
               id="path258"
               style="fill:url(#linearGradient256);stroke:none"
               d="m 887.594,302.288 c -2.292,-0.154 -4.669,-0.841 -7.115,-2.062 v 0 c -6.273,-3.213 -11.165,-7.307 -14.684,-12.275 v 0 c -3.521,-4.977 -5.547,-9.72 -6.08,-14.229 v 0 c -0.538,-4.514 0.533,-8.186 3.213,-11.011 v 0 c 2.676,-2.835 7.148,-3.56 13.425,-2.18 v 0 c 4.59,0.917 8.373,1.413 11.358,1.492 v 0 c 2.979,0.075 5.276,-0.229 6.881,-0.921 v 0 c 1.609,-0.688 2.559,-1.642 2.867,-2.868 v 0 c 0.304,-1.226 0.075,-2.601 -0.687,-4.13 v 0 c -1.376,-4.439 -2.831,-8.453 -4.36,-12.045 v 0 c -1.53,-3.597 -2.984,-7.115 -4.36,-10.553 v 0 c -1.375,-3.442 -2.75,-6.886 -4.13,-10.328 v 0 c -1.376,-3.438 -2.601,-7.153 -3.672,-11.129 v 0 c -0.917,-3.517 -1.604,-6.88 -2.063,-10.094 v 0 c -0.458,-3.213 -0.309,-6.081 0.459,-8.602 v 0 c 0.762,-2.526 2.371,-4.631 4.817,-6.31 v 0 c 2.447,-1.689 5.965,-2.676 10.558,-2.985 v 0 c 3.822,-0.304 7.11,-0.421 9.865,-0.346 v 0 c 2.751,0.08 5.16,0.346 7.227,0.804 v 0 c 2.063,0.459 3.976,1.147 5.735,2.063 v 0 c 1.759,0.922 3.634,2.218 5.622,3.902 v 0 c 2.756,2.296 5.048,4.626 6.886,6.997 v 0 c 1.834,2.373 3.555,4.898 5.16,7.574 v 0 c 1.609,2.675 3.176,5.468 4.705,8.378 v 0 c 1.526,2.9 3.289,6.039 5.277,9.407 v 0 c 0.458,0.762 0.687,1.492 0.687,2.179 v 0 c 0,0.688 -0.191,1.184 -0.57,1.493 v 0 c -0.384,0.303 -0.922,0.261 -1.609,-0.117 v 0 c -0.688,-0.384 -1.493,-1.264 -2.41,-2.639 v 0 c -1.529,-2.451 -3.25,-5.127 -5.164,-8.032 v 0 c -1.912,-2.904 -3.938,-5.735 -6.076,-8.49 v 0 c -2.147,-2.75 -4.327,-5.276 -6.539,-7.573 v 0 c -2.222,-2.291 -4.327,-4.126 -6.31,-5.505 v 0 c -1.993,-1.226 -4.248,-1.53 -6.769,-0.917 v 0 c -2.526,0.608 -3.868,2.217 -4.019,4.818 v 0 c -0.308,3.672 1.381,10.44 5.048,20.306 v 0 c 3.672,9.865 8.64,21.915 14.917,36.139 v 0 c 1.375,3.214 2.484,6.156 3.326,8.832 v 0 c 0.838,2.676 0.991,5.084 0.459,7.232 v 0 c -0.539,2.137 -1.951,3.934 -4.243,5.388 v 0 c -2.297,1.455 -5.894,2.484 -10.787,3.101 v 0 c -3.059,0.305 -5.852,0.417 -8.373,0.342 v 0 c -2.526,-0.08 -4.972,-0.154 -7.344,-0.229 v 0 c -2.372,-0.079 -4.668,-0.154 -6.881,-0.23 v 0 c -2.222,-0.079 -4.556,0.038 -7.002,0.347 v 0 c -5.356,0.762 -8.528,2.026 -9.52,3.784 v 0 c -0.996,1.759 -0.425,4.013 1.722,6.768 v 0 c 2.442,3.364 4.392,5.352 5.847,5.965 v 0 c 1.455,0.613 2.446,0.459 2.985,-0.458 v 0 c 0.533,-0.918 0.649,-2.26 0.345,-4.014 v 0 c -0.308,-1.759 -0.996,-3.251 -2.067,-4.477 v 0 c -0.613,-0.767 -1.071,-1.684 -1.375,-2.75 v 0 c -0.309,-1.071 0.074,-1.838 1.146,-2.297 v 0 c 0.458,-0.309 1.38,-0.112 2.755,0.576 v 0 c 1.375,0.687 2.367,1.412 2.985,2.18 v 0 c 1.679,2.137 3.016,3.9 4.013,5.275 v 0 c 0.992,1.376 1.871,2.985 2.638,4.819 v 0 c 0.917,1.988 1.066,3.747 0.459,5.277 v 0 c -0.613,1.529 -1.722,2.674 -3.327,3.442 v 0 c -1.339,0.637 -2.919,0.954 -4.741,0.954 v 0 c -0.361,0 -0.731,-0.013 -1.11,-0.038" /></g></g></g></g><g
       id="g260"><g
         id="g262"><g
           id="g268"><g
             id="g270"><path
               id="path278"
               style="fill:url(#linearGradient276);stroke:none"
               d="m 983.047,338.316 c 0.304,-1.992 0.112,-4.438 -0.576,-7.344 v 0 c -0.687,-2.909 -1.572,-5.852 -2.638,-8.836 v 0 c -1.071,-2.98 -2.259,-5.814 -3.555,-8.49 v 0 c -1.305,-2.675 -2.413,-4.701 -3.33,-6.076 v 0 c -8.57,-0.154 -15.601,0.304 -21.111,1.375 v 0 c -5.506,1.066 -9.865,2.18 -13.079,3.326 v 0 c -3.209,1.146 -5.538,2.025 -6.998,2.638 v 0 c -1.45,0.608 -2.483,0.379 -3.096,-0.688 v 0 c 2.451,-3.213 5.473,-5.964 9.065,-8.261 v 0 c 3.597,-2.291 7.227,-4.242 10.899,-5.851 v 0 c 3.672,-1.604 7.148,-2.905 10.441,-3.901 v 0 c 3.284,-0.996 6.001,-1.642 8.144,-1.95 v 0 c -0.155,-0.151 -0.768,-1.456 -1.834,-3.897 v 0 c -1.076,-2.451 -2.489,-5.548 -4.247,-9.295 v 0 c -1.759,-3.752 -3.635,-7.882 -5.623,-12.391 v 0 c -1.988,-4.514 -3.901,-8.799 -5.735,-12.85 v 0 c -1.834,-4.055 -3.48,-7.685 -4.935,-10.899 v 0 c -1.45,-3.213 -2.409,-5.431 -2.867,-6.651 v 0 c -3.06,-7.499 -5.351,-13.734 -6.881,-18.702 v 0 c -1.53,-4.973 -2.446,-9.22 -2.755,-12.732 v 0 c -0.304,-3.523 0,-6.54 0.916,-9.066 v 0 c 0.917,-2.525 2.297,-5.014 4.131,-7.456 v 0 c 1.071,-1.684 2.985,-3.064 5.735,-4.131 v 0 c 2.755,-1.071 5.814,-1.801 9.182,-2.179 v 0 c 3.363,-0.384 6.881,-0.426 10.553,-0.117 v 0 c 3.672,0.304 7.036,0.921 10.095,1.838 v 0 c 3.976,1.375 8.106,3.443 12.391,6.193 v 0 c 4.28,2.756 8.681,6.386 13.196,10.899 v 0 c 4.509,4.51 9.177,10.02 13.996,16.522 v 0 c 4.817,6.497 9.901,14.187 15.258,23.061 v 0 c 2.596,3.517 4.622,6.801 6.081,9.865 v 0 c 1.449,3.06 2.329,4.893 2.638,5.506 v 0 c 0.917,1.988 0.608,3.289 -0.917,3.901 v 0 c -1.534,0.608 -2.755,0.229 -3.672,-1.146 v 0 c -5.202,-7.802 -10.211,-15.642 -15.03,-23.52 v 0 c -4.817,-7.881 -9.79,-15.066 -14.916,-21.568 v 0 c -5.127,-6.502 -10.553,-11.97 -16.288,-16.404 v 0 c -5.74,-4.44 -12.05,-7.116 -18.931,-8.032 v 0 c -2.606,-0.309 -4.514,-0.309 -5.735,0 v 0 c -1.23,0.304 -2.067,0.837 -2.525,1.604 v 0 c -0.459,0.767 -0.688,1.684 -0.688,2.756 v 0 3.442 c 0,0.762 0.571,2.867 1.721,6.31 v 0 c 1.147,3.438 2.713,7.686 4.702,12.733 v 0 c 1.988,5.047 4.28,10.67 6.884,16.863 v 0 c 2.601,6.198 5.352,12.62 8.262,19.277 v 0 c 2.905,6.652 5.851,13.228 8.831,19.73 v 0 c 2.985,6.502 5.852,12.583 8.607,18.243 v 0 c 9.94,0.15 17.93,0.65 23.978,1.493 v 0 c 6.039,0.837 10.67,2.179 13.879,4.013 v 0 c 3.214,1.838 5.281,4.28 6.197,7.344 v 0 c 0.917,3.059 1.221,7.035 0.917,11.933 v 0 c -0.458,1.375 -1.263,1.95 -2.409,1.716 v 0 c -1.146,-0.228 -3.096,-0.879 -5.851,-1.946 v 0 c -2.756,-1.075 -6.539,-2.414 -11.358,-4.018 v 0 c -4.818,-1.604 -11.208,-2.947 -19.159,-4.013 v 0 c 1.22,2.905 2.18,5.276 2.867,7.11 v 0 c 0.688,1.838 1.15,3.442 1.38,4.818 v 0 c 0.228,1.38 0.262,2.675 0.112,3.901 v 0 c -0.154,1.226 -0.384,2.526 -0.687,3.901 v 0 c -0.459,2.142 -1.53,3.977 -3.214,5.506 v 0 c -1.684,1.53 -3.635,2.718 -5.852,3.559 v 0 c -2.217,0.838 -4.626,1.376 -7.227,1.605 v 0 c -0.71,0.063 -1.408,0.094 -2.094,0.094 v 0 c -1.83,0 -3.579,-0.222 -5.245,-0.665" /></g></g></g></g><g
       id="g280"><g
         clip-path="url(#clipPath286)"
         id="g282"><g
           transform="translate(509.3072,119.0367)"
           id="g288"><path
             id="path290"
             style="fill:#0078ee;fill-opacity:1;fill-rule:nonzero;stroke:none"
             d="m 0,0 8.694,0.847 c 0.526,-2.917 1.585,-5.06 3.187,-6.429 1.601,-1.369 3.756,-2.053 6.474,-2.053 2.876,0 5.047,0.611 6.506,1.825 1.459,1.214 2.188,2.64 2.188,4.27 0,1.051 -0.306,1.939 -0.921,2.673 -0.615,0.733 -1.687,1.377 -3.214,1.915 -1.048,0.366 -3.431,1.01 -7.155,1.931 -4.791,1.189 -8.152,2.648 -10.084,4.384 -2.717,2.428 -4.074,5.402 -4.074,8.898 0,2.257 0.64,4.367 1.915,6.331 1.279,1.956 3.121,3.455 5.525,4.482 2.408,1.027 5.309,1.54 8.71,1.54 5.554,0 9.734,-1.222 12.545,-3.659 2.807,-2.436 4.278,-5.679 4.421,-9.745 l -8.935,-0.392 c -0.383,2.274 -1.202,3.904 -2.461,4.906 -1.259,0.994 -3.145,1.491 -5.659,1.491 -2.595,0 -4.628,-0.53 -6.099,-1.597 -0.945,-0.685 -1.418,-1.605 -1.418,-2.746 0,-1.051 0.44,-1.948 1.328,-2.689 1.125,-0.945 3.862,-1.931 8.21,-2.958 4.347,-1.027 7.562,-2.094 9.643,-3.186 2.086,-1.1 3.716,-2.599 4.894,-4.498 1.177,-1.899 1.764,-4.254 1.764,-7.048 0,-2.535 -0.705,-4.914 -2.111,-7.122 -1.409,-2.217 -3.402,-3.863 -5.981,-4.938 -2.575,-1.076 -5.785,-1.614 -9.627,-1.614 -5.594,0 -9.892,1.288 -12.891,3.879 C 2.375,-8.719 0.583,-4.946 0,0" /></g><g
           transform="translate(558.9886,104.6383)"
           id="g292"><path
             id="path294"
             style="fill:#0078ee;fill-opacity:1;fill-rule:nonzero;stroke:none"
             d="M 0,0 V 44.255 H 32.814 V 36.766 H 8.939 V 26.955 H 31.152 V 19.499 H 8.939 V 7.456 H 33.661 V 0 Z" /></g><g
           transform="translate(615.3762,130.1757)"
           id="g296"><path
             id="path298"
             style="fill:#0078ee;fill-opacity:1;fill-rule:nonzero;stroke:none"
             d="m 0,0 h 6.608 c 4.287,0 6.967,0.179 8.035,0.546 1.067,0.358 1.898,0.986 2.501,1.866 0.603,0.888 0.905,1.996 0.905,3.325 0,1.491 -0.391,2.689 -1.19,3.609 -0.798,0.913 -1.915,1.491 -3.365,1.736 -0.725,0.098 -2.901,0.147 -6.519,0.147 L 0,11.229 Z M -8.939,-25.537 V 18.717 H 9.868 c 4.734,0 8.173,-0.399 10.316,-1.19 2.143,-0.798 3.854,-2.208 5.142,-4.245 1.287,-2.029 1.931,-4.359 1.931,-6.975 0,-3.317 -0.978,-6.063 -2.926,-8.222 -1.955,-2.167 -4.872,-3.528 -8.751,-4.09 1.931,-1.125 3.52,-2.364 4.783,-3.716 1.255,-1.345 2.95,-3.74 5.085,-7.179 l 5.394,-8.637 H 20.168 l -6.462,9.631 c -2.298,3.439 -3.863,5.606 -4.71,6.503 -0.848,0.896 -1.744,1.507 -2.689,1.841 -0.945,0.334 -2.445,0.497 -4.498,0.497 H 0 v -18.472 z" /></g><g
           transform="translate(667.4125,104.6383)"
           id="g300"><path
             id="path302"
             style="fill:#0078ee;fill-opacity:1;fill-rule:nonzero;stroke:none"
             d="m 0,0 -15.824,44.255 h 9.688 L 5.068,11.498 15.906,44.255 h 9.477 L 9.534,0 Z" /></g><path
           id="path304"
           style="fill:#0078ee;fill-opacity:1;fill-rule:nonzero;stroke:none"
           d="m 703.274,148.893 h 8.931 v -44.255 h -8.931 z" /><g
           transform="translate(755.2126,120.9109)"
           id="g306"><path
             id="path308"
             style="fill:#0078ee;fill-opacity:1;fill-rule:nonzero;stroke:none"
             d="M 0,0 8.662,-2.746 C 7.334,-7.578 5.125,-11.163 2.037,-13.51 c -3.088,-2.347 -7.008,-3.52 -11.758,-3.52 -5.875,0 -10.707,2.012 -14.488,6.021 -3.789,4.018 -5.68,9.51 -5.68,16.469 0,7.366 1.907,13.086 5.712,17.16 3.798,4.083 8.801,6.12 15.002,6.12 5.41,0 9.811,-1.605 13.192,-4.8 2.013,-1.898 3.52,-4.612 4.523,-8.156 l -8.842,-2.111 c -0.521,2.298 -1.613,4.107 -3.275,5.435 -1.663,1.328 -3.675,1.988 -6.055,1.988 -3.275,0 -5.94,-1.173 -7.985,-3.528 -2.037,-2.355 -3.064,-6.168 -3.064,-11.44 0,-5.598 1.011,-9.583 3.023,-11.954 2.013,-2.38 4.629,-3.561 7.847,-3.561 2.371,0 4.417,0.75 6.128,2.265 C -1.972,-5.614 -0.742,-3.243 0,0" /></g><g
           transform="translate(777.7269,104.6383)"
           id="g310"><path
             id="path312"
             style="fill:#0078ee;fill-opacity:1;fill-rule:nonzero;stroke:none"
             d="M 0,0 V 44.255 H 32.814 V 36.766 H 8.939 V 26.955 H 31.152 V 19.499 H 8.939 V 7.456 H 33.661 V 0 Z" /></g><g
           transform="translate(822.8777,119.0367)"
           id="g314"><path
             id="path316"
             style="fill:#0078ee;fill-opacity:1;fill-rule:nonzero;stroke:none"
             d="m 0,0 8.694,0.847 c 0.522,-2.917 1.589,-5.06 3.186,-6.429 1.598,-1.369 3.757,-2.053 6.479,-2.053 2.876,0 5.044,0.611 6.502,1.825 1.459,1.214 2.192,2.64 2.192,4.27 0,1.051 -0.31,1.939 -0.921,2.673 -0.619,0.733 -1.687,1.377 -3.218,1.915 -1.043,0.366 -3.431,1.01 -7.155,1.931 -4.791,1.189 -8.148,2.648 -10.079,4.384 -2.722,2.428 -4.083,5.402 -4.083,8.898 0,2.257 0.644,4.367 1.923,6.331 1.279,1.956 3.121,3.455 5.525,4.482 2.404,1.027 5.304,1.54 8.702,1.54 5.558,0 9.738,-1.222 12.549,-3.659 2.803,-2.436 4.278,-5.679 4.417,-9.745 l -8.931,-0.392 c -0.383,2.274 -1.206,3.904 -2.461,4.906 -1.255,0.994 -3.145,1.491 -5.663,1.491 -2.591,0 -4.629,-0.53 -6.095,-1.597 -0.946,-0.685 -1.418,-1.605 -1.418,-2.746 0,-1.051 0.44,-1.948 1.328,-2.689 1.125,-0.945 3.863,-1.931 8.214,-2.958 4.343,-1.027 7.562,-2.094 9.639,-3.186 2.086,-1.1 3.716,-2.599 4.89,-4.498 1.181,-1.899 1.768,-4.254 1.768,-7.048 0,-2.535 -0.701,-4.914 -2.111,-7.122 -1.409,-2.217 -3.406,-3.863 -5.981,-4.938 -2.575,-1.076 -5.785,-1.614 -9.631,-1.614 -5.59,0 -9.884,1.288 -12.883,3.879 C 2.379,-8.719 0.587,-4.946 0,0" /></g><g
           transform="translate(896.1653,104.6383)"
           id="g318"><path
             id="path320"
             style="fill:#0078ee;fill-opacity:1;fill-rule:nonzero;stroke:none"
             d="M 0,0 V 43.896 H 8.931 V 7.456 H 31.152 V 0 Z" /></g><g
           transform="translate(940.1102,104.6383)"
           id="g322"><path
             id="path324"
             style="fill:#0078ee;fill-opacity:1;fill-rule:nonzero;stroke:none"
             d="M 0,0 V 43.896 H 8.931 V 7.456 H 31.152 V 0 Z" /></g><g
           transform="translate(1012.1347,120.9109)"
           id="g326"><path
             id="path328"
             style="fill:#0078ee;fill-opacity:1;fill-rule:nonzero;stroke:none"
             d="M 0,0 8.662,-2.746 C 7.334,-7.578 5.125,-11.163 2.037,-13.51 c -3.088,-2.347 -7.008,-3.52 -11.758,-3.52 -5.875,0 -10.707,2.012 -14.488,6.021 -3.789,4.018 -5.68,9.51 -5.68,16.469 0,7.366 1.907,13.086 5.712,17.16 3.798,4.083 8.801,6.12 15.002,6.12 5.41,0 9.811,-1.605 13.192,-4.8 2.013,-1.898 3.52,-4.612 4.523,-8.156 l -8.841,-2.111 c -0.522,2.298 -1.614,4.107 -3.276,5.435 -1.662,1.328 -3.675,1.988 -6.055,1.988 -3.275,0 -5.94,-1.173 -7.985,-3.528 -2.037,-2.355 -3.064,-6.168 -3.064,-11.44 0,-5.598 1.011,-9.583 3.023,-11.954 2.013,-2.38 4.629,-3.561 7.847,-3.561 2.371,0 4.417,0.75 6.128,2.265 C -1.972,-5.614 -0.742,-3.243 0,0" /></g></g></g></g></svg>